<mxfile host="app.diagrams.net" modified="2024-07-05T08:04:50.937Z" agent="Mozilla/5.0 (Macintosh; Intel Mac OS X 10_15_7) AppleWebKit/537.36 (KHTML, like Gecko) Chrome/126.0.0.0 Safari/537.36" etag="U_UECtc26LjWfXiFvW7V" version="24.6.4" type="github">
  <diagram name="第 1 页" id="Bww3XZ6TS6lv80jHD4KE">
    <mxGraphModel dx="1434" dy="726" grid="1" gridSize="10" guides="1" tooltips="1" connect="1" arrows="1" fold="1" page="1" pageScale="1" pageWidth="827" pageHeight="1169" math="0" shadow="0">
      <root>
        <mxCell id="0" />
        <mxCell id="1" parent="0" />
        <mxCell id="CPohoVJD_gDeLtstU62P-7" style="edgeStyle=orthogonalEdgeStyle;rounded=0;orthogonalLoop=1;jettySize=auto;html=1;exitX=0.5;exitY=1;exitDx=0;exitDy=0;" edge="1" parent="1" source="CPohoVJD_gDeLtstU62P-1" target="CPohoVJD_gDeLtstU62P-2">
          <mxGeometry relative="1" as="geometry" />
        </mxCell>
        <mxCell id="CPohoVJD_gDeLtstU62P-8" style="edgeStyle=orthogonalEdgeStyle;rounded=0;orthogonalLoop=1;jettySize=auto;html=1;exitX=0.5;exitY=1;exitDx=0;exitDy=0;entryX=0.5;entryY=0;entryDx=0;entryDy=0;" edge="1" parent="1" source="CPohoVJD_gDeLtstU62P-1" target="CPohoVJD_gDeLtstU62P-3">
          <mxGeometry relative="1" as="geometry" />
        </mxCell>
        <mxCell id="CPohoVJD_gDeLtstU62P-1" value="&lt;div style=&quot;color: #cccccc;background-color: #1f1f1f;font-family: Menlo, Monaco, &#39;Courier New&#39;, monospace;font-weight: normal;font-size: 12px;line-height: 18px;white-space: pre;&quot;&gt;&lt;div&gt;&lt;span style=&quot;color: #4ec9b0;&quot;&gt;Qwen2MoeForCausalLM&lt;/span&gt;&lt;/div&gt;&lt;/div&gt;" style="text;whiteSpace=wrap;html=1;" vertex="1" parent="1">
          <mxGeometry x="240" y="30" width="170" height="40" as="geometry" />
        </mxCell>
        <mxCell id="CPohoVJD_gDeLtstU62P-9" style="edgeStyle=orthogonalEdgeStyle;rounded=0;orthogonalLoop=1;jettySize=auto;html=1;exitX=0.25;exitY=1;exitDx=0;exitDy=0;" edge="1" parent="1" source="CPohoVJD_gDeLtstU62P-2" target="CPohoVJD_gDeLtstU62P-4">
          <mxGeometry relative="1" as="geometry" />
        </mxCell>
        <mxCell id="CPohoVJD_gDeLtstU62P-10" style="edgeStyle=orthogonalEdgeStyle;rounded=0;orthogonalLoop=1;jettySize=auto;html=1;exitX=0.25;exitY=1;exitDx=0;exitDy=0;entryX=0.5;entryY=0;entryDx=0;entryDy=0;" edge="1" parent="1" source="CPohoVJD_gDeLtstU62P-2" target="CPohoVJD_gDeLtstU62P-5">
          <mxGeometry relative="1" as="geometry" />
        </mxCell>
        <mxCell id="CPohoVJD_gDeLtstU62P-11" style="edgeStyle=orthogonalEdgeStyle;rounded=0;orthogonalLoop=1;jettySize=auto;html=1;exitX=0.25;exitY=1;exitDx=0;exitDy=0;" edge="1" parent="1" source="CPohoVJD_gDeLtstU62P-2" target="CPohoVJD_gDeLtstU62P-6">
          <mxGeometry relative="1" as="geometry" />
        </mxCell>
        <mxCell id="CPohoVJD_gDeLtstU62P-2" value="&lt;div style=&quot;color: #cccccc;background-color: #1f1f1f;font-family: Menlo, Monaco, &#39;Courier New&#39;, monospace;font-weight: normal;font-size: 12px;line-height: 18px;white-space: pre;&quot;&gt;&lt;div&gt;&lt;span style=&quot;color: #4ec9b0;&quot;&gt;Qwen2MoeModel&lt;/span&gt;&lt;/div&gt;&lt;/div&gt;" style="text;whiteSpace=wrap;html=1;" vertex="1" parent="1">
          <mxGeometry x="160" y="110" width="130" height="40" as="geometry" />
        </mxCell>
        <mxCell id="CPohoVJD_gDeLtstU62P-3" value="&lt;div style=&quot;color: #cccccc;background-color: #1f1f1f;font-family: Menlo, Monaco, &#39;Courier New&#39;, monospace;font-weight: normal;font-size: 12px;line-height: 18px;white-space: pre;&quot;&gt;&lt;div&gt;&lt;span style=&quot;color: #9cdcfe;&quot;&gt;lm_head&lt;/span&gt;&lt;span style=&quot;color: #cccccc;&quot;&gt; &lt;/span&gt;&lt;span style=&quot;color: #d4d4d4;&quot;&gt;=&lt;/span&gt;&lt;span style=&quot;color: #cccccc;&quot;&gt; &lt;/span&gt;&lt;span style=&quot;color: #4ec9b0;&quot;&gt;nn&lt;/span&gt;&lt;span style=&quot;color: #cccccc;&quot;&gt;.&lt;/span&gt;&lt;span style=&quot;color: #4ec9b0;&quot;&gt;Linear&lt;/span&gt;&lt;/div&gt;&lt;/div&gt;" style="text;whiteSpace=wrap;html=1;" vertex="1" parent="1">
          <mxGeometry x="320" y="110" width="170" height="40" as="geometry" />
        </mxCell>
        <mxCell id="CPohoVJD_gDeLtstU62P-4" value="&lt;div style=&quot;color: #cccccc;background-color: #1f1f1f;font-family: Menlo, Monaco, &#39;Courier New&#39;, monospace;font-weight: normal;font-size: 12px;line-height: 18px;white-space: pre;&quot;&gt;&lt;div&gt;&lt;span style=&quot;color: #9cdcfe;&quot;&gt;self&lt;/span&gt;&lt;span style=&quot;color: #cccccc;&quot;&gt;.&lt;/span&gt;&lt;span style=&quot;color: #9cdcfe;&quot;&gt;embed_tokens&lt;/span&gt;&lt;span style=&quot;color: #cccccc;&quot;&gt; &lt;/span&gt;&lt;span style=&quot;color: #d4d4d4;&quot;&gt;=&lt;/span&gt;&lt;span style=&quot;color: #cccccc;&quot;&gt; &lt;/span&gt;&lt;span style=&quot;color: #4ec9b0;&quot;&gt;nn&lt;/span&gt;&lt;span style=&quot;color: #cccccc;&quot;&gt;.&lt;/span&gt;&lt;span style=&quot;color: #4ec9b0;&quot;&gt;Embedding&lt;/span&gt;&lt;/div&gt;&lt;/div&gt;" style="text;whiteSpace=wrap;html=1;" vertex="1" parent="1">
          <mxGeometry x="30" y="210" width="260" height="40" as="geometry" />
        </mxCell>
        <mxCell id="CPohoVJD_gDeLtstU62P-13" style="edgeStyle=orthogonalEdgeStyle;rounded=0;orthogonalLoop=1;jettySize=auto;html=1;exitX=0.5;exitY=1;exitDx=0;exitDy=0;entryX=0.5;entryY=0;entryDx=0;entryDy=0;" edge="1" parent="1" source="CPohoVJD_gDeLtstU62P-5" target="CPohoVJD_gDeLtstU62P-12">
          <mxGeometry relative="1" as="geometry" />
        </mxCell>
        <mxCell id="CPohoVJD_gDeLtstU62P-5" value="&lt;div style=&quot;color: #cccccc;background-color: #1f1f1f;font-family: Menlo, Monaco, &#39;Courier New&#39;, monospace;font-weight: normal;font-size: 12px;line-height: 18px;white-space: pre;&quot;&gt;&lt;div&gt;&lt;span style=&quot;color: #9cdcfe;&quot;&gt;self&lt;/span&gt;&lt;span style=&quot;color: #cccccc;&quot;&gt;.&lt;/span&gt;&lt;span style=&quot;color: #9cdcfe;&quot;&gt;layers&lt;/span&gt;&lt;span style=&quot;color: #cccccc;&quot;&gt; &lt;/span&gt;&lt;span style=&quot;color: #d4d4d4;&quot;&gt;=&lt;/span&gt;&lt;span style=&quot;color: #cccccc;&quot;&gt; &lt;/span&gt;&lt;span style=&quot;color: #4ec9b0;&quot;&gt;nn&lt;/span&gt;&lt;span style=&quot;color: #cccccc;&quot;&gt;.&lt;/span&gt;&lt;span style=&quot;color: #4ec9b0;&quot;&gt;ModuleList&lt;/span&gt;&lt;/div&gt;&lt;/div&gt;" style="text;whiteSpace=wrap;html=1;" vertex="1" parent="1">
          <mxGeometry x="299" y="210" width="230" height="40" as="geometry" />
        </mxCell>
        <mxCell id="CPohoVJD_gDeLtstU62P-6" value="&lt;div style=&quot;color: #cccccc;background-color: #1f1f1f;font-family: Menlo, Monaco, &#39;Courier New&#39;, monospace;font-weight: normal;font-size: 12px;line-height: 18px;white-space: pre;&quot;&gt;&lt;div&gt;&lt;span style=&quot;color: #9cdcfe;&quot;&gt;self&lt;/span&gt;&lt;span style=&quot;color: #cccccc;&quot;&gt;.&lt;/span&gt;&lt;span style=&quot;color: #9cdcfe;&quot;&gt;norm&lt;/span&gt;&lt;span style=&quot;color: #cccccc;&quot;&gt; &lt;/span&gt;&lt;span style=&quot;color: #d4d4d4;&quot;&gt;=&lt;/span&gt;&lt;span style=&quot;color: #cccccc;&quot;&gt; &lt;/span&gt;&lt;span style=&quot;color: #4ec9b0;&quot;&gt;Qwen2MoeRMSNorm&lt;/span&gt;&lt;/div&gt;&lt;/div&gt;" style="text;whiteSpace=wrap;html=1;" vertex="1" parent="1">
          <mxGeometry x="520" y="210" width="230" height="40" as="geometry" />
        </mxCell>
        <mxCell id="CPohoVJD_gDeLtstU62P-19" style="edgeStyle=orthogonalEdgeStyle;rounded=0;orthogonalLoop=1;jettySize=auto;html=1;exitX=0.5;exitY=1;exitDx=0;exitDy=0;" edge="1" parent="1" source="CPohoVJD_gDeLtstU62P-12" target="CPohoVJD_gDeLtstU62P-18">
          <mxGeometry relative="1" as="geometry" />
        </mxCell>
        <mxCell id="CPohoVJD_gDeLtstU62P-20" style="edgeStyle=orthogonalEdgeStyle;rounded=0;orthogonalLoop=1;jettySize=auto;html=1;exitX=0.5;exitY=1;exitDx=0;exitDy=0;" edge="1" parent="1" source="CPohoVJD_gDeLtstU62P-12" target="CPohoVJD_gDeLtstU62P-16">
          <mxGeometry relative="1" as="geometry" />
        </mxCell>
        <mxCell id="CPohoVJD_gDeLtstU62P-21" style="edgeStyle=orthogonalEdgeStyle;rounded=0;orthogonalLoop=1;jettySize=auto;html=1;exitX=0.5;exitY=1;exitDx=0;exitDy=0;" edge="1" parent="1" source="CPohoVJD_gDeLtstU62P-12" target="CPohoVJD_gDeLtstU62P-15">
          <mxGeometry relative="1" as="geometry" />
        </mxCell>
        <mxCell id="CPohoVJD_gDeLtstU62P-22" style="edgeStyle=orthogonalEdgeStyle;rounded=0;orthogonalLoop=1;jettySize=auto;html=1;exitX=0.5;exitY=1;exitDx=0;exitDy=0;" edge="1" parent="1" source="CPohoVJD_gDeLtstU62P-12" target="CPohoVJD_gDeLtstU62P-14">
          <mxGeometry relative="1" as="geometry" />
        </mxCell>
        <mxCell id="CPohoVJD_gDeLtstU62P-12" value="&lt;div style=&quot;color: #cccccc;background-color: #1f1f1f;font-family: Menlo, Monaco, &#39;Courier New&#39;, monospace;font-weight: normal;font-size: 12px;line-height: 18px;white-space: pre;&quot;&gt;&lt;div&gt;&lt;span style=&quot;color: #4ec9b0;&quot;&gt;Qwen2MoeDecoderLayer&lt;/span&gt;&lt;/div&gt;&lt;/div&gt;" style="text;whiteSpace=wrap;html=1;" vertex="1" parent="1">
          <mxGeometry x="324" y="300" width="180" height="40" as="geometry" />
        </mxCell>
        <mxCell id="CPohoVJD_gDeLtstU62P-27" style="edgeStyle=orthogonalEdgeStyle;rounded=0;orthogonalLoop=1;jettySize=auto;html=1;exitX=0.5;exitY=1;exitDx=0;exitDy=0;" edge="1" parent="1" source="CPohoVJD_gDeLtstU62P-14" target="CPohoVJD_gDeLtstU62P-23">
          <mxGeometry relative="1" as="geometry" />
        </mxCell>
        <mxCell id="CPohoVJD_gDeLtstU62P-28" style="edgeStyle=orthogonalEdgeStyle;rounded=0;orthogonalLoop=1;jettySize=auto;html=1;exitX=0.5;exitY=1;exitDx=0;exitDy=0;" edge="1" parent="1" source="CPohoVJD_gDeLtstU62P-14" target="CPohoVJD_gDeLtstU62P-24">
          <mxGeometry relative="1" as="geometry" />
        </mxCell>
        <mxCell id="CPohoVJD_gDeLtstU62P-30" style="edgeStyle=orthogonalEdgeStyle;rounded=0;orthogonalLoop=1;jettySize=auto;html=1;exitX=0.5;exitY=1;exitDx=0;exitDy=0;" edge="1" parent="1" source="CPohoVJD_gDeLtstU62P-14" target="CPohoVJD_gDeLtstU62P-26">
          <mxGeometry relative="1" as="geometry" />
        </mxCell>
        <mxCell id="CPohoVJD_gDeLtstU62P-14" value="&lt;div style=&quot;color: #cccccc;background-color: #1f1f1f;font-family: Menlo, Monaco, &#39;Courier New&#39;, monospace;font-weight: normal;font-size: 12px;line-height: 18px;white-space: pre;&quot;&gt;&lt;div&gt;&lt;span style=&quot;color: #9cdcfe;&quot;&gt;self&lt;/span&gt;&lt;span style=&quot;color: #cccccc;&quot;&gt;.&lt;/span&gt;&lt;span style=&quot;color: #9cdcfe;&quot;&gt;mlp&lt;/span&gt;&lt;span style=&quot;color: #cccccc;&quot;&gt; &lt;/span&gt;&lt;span style=&quot;color: #d4d4d4;&quot;&gt;=&lt;/span&gt;&lt;span style=&quot;color: #cccccc;&quot;&gt; &lt;/span&gt;&lt;span style=&quot;color: #4ec9b0;&quot;&gt;Qwen2MoeSparseMoeBlock&lt;/span&gt;&lt;/div&gt;&lt;/div&gt;" style="text;whiteSpace=wrap;html=1;fillColor=#d5e8d4;strokeColor=#82b366;" vertex="1" parent="1">
          <mxGeometry x="299" y="400" width="270" height="40" as="geometry" />
        </mxCell>
        <mxCell id="CPohoVJD_gDeLtstU62P-15" value="&lt;div style=&quot;color: #cccccc;background-color: #1f1f1f;font-family: Menlo, Monaco, &#39;Courier New&#39;, monospace;font-weight: normal;font-size: 12px;line-height: 18px;white-space: pre;&quot;&gt;&lt;div&gt;&lt;span style=&quot;color: #9cdcfe;&quot;&gt;self&lt;/span&gt;&lt;span style=&quot;color: #cccccc;&quot;&gt;.&lt;/span&gt;&lt;span style=&quot;color: #9cdcfe;&quot;&gt;input_layernorm&lt;/span&gt;&lt;span style=&quot;color: #cccccc;&quot;&gt; &lt;/span&gt;&lt;span style=&quot;color: #d4d4d4;&quot;&gt;=&lt;/span&gt;&lt;span style=&quot;color: #cccccc;&quot;&gt; &lt;/span&gt;&lt;span style=&quot;color: #4ec9b0;&quot;&gt;Qwen2MoeRMSNorm&lt;/span&gt;&lt;/div&gt;&lt;/div&gt;" style="text;whiteSpace=wrap;html=1;fillColor=#d5e8d4;strokeColor=#82b366;" vertex="1" parent="1">
          <mxGeometry x="560" y="400" width="310" height="40" as="geometry" />
        </mxCell>
        <mxCell id="CPohoVJD_gDeLtstU62P-16" value="&lt;div style=&quot;color: #cccccc;background-color: #1f1f1f;font-family: Menlo, Monaco, &#39;Courier New&#39;, monospace;font-weight: normal;font-size: 12px;line-height: 18px;white-space: pre;&quot;&gt;&lt;div&gt;&lt;span style=&quot;color: #9cdcfe;&quot;&gt;self&lt;/span&gt;&lt;span style=&quot;color: #cccccc;&quot;&gt;.&lt;/span&gt;&lt;span style=&quot;color: #9cdcfe;&quot;&gt;post_attention_layernorm&lt;/span&gt;&lt;span style=&quot;color: #cccccc;&quot;&gt; &lt;/span&gt;&lt;span style=&quot;color: #d4d4d4;&quot;&gt;=&lt;/span&gt;&lt;span style=&quot;color: #cccccc;&quot;&gt; &lt;/span&gt;&lt;span style=&quot;color: #4ec9b0;&quot;&gt;Qwen2MoeRMSNorm&lt;/span&gt;&lt;/div&gt;&lt;/div&gt;" style="text;whiteSpace=wrap;html=1;fillColor=#d5e8d4;strokeColor=#82b366;" vertex="1" parent="1">
          <mxGeometry x="860" y="400" width="370" height="40" as="geometry" />
        </mxCell>
        <mxCell id="CPohoVJD_gDeLtstU62P-18" value="(self_attn): Qwen2MoeAttention" style="text;whiteSpace=wrap;fillColor=#d5e8d4;strokeColor=#82b366;" vertex="1" parent="1">
          <mxGeometry x="50" y="400" width="200" height="40" as="geometry" />
        </mxCell>
        <mxCell id="CPohoVJD_gDeLtstU62P-23" value="&lt;div style=&quot;color: #cccccc;background-color: #1f1f1f;font-family: Menlo, Monaco, &#39;Courier New&#39;, monospace;font-weight: normal;font-size: 12px;line-height: 18px;white-space: pre;&quot;&gt;&lt;div&gt;&lt;span style=&quot;color: #9cdcfe;&quot;&gt;self&lt;/span&gt;&lt;span style=&quot;color: #cccccc;&quot;&gt;.&lt;/span&gt;&lt;span style=&quot;color: #9cdcfe;&quot;&gt;gate&lt;/span&gt;&lt;span style=&quot;color: #cccccc;&quot;&gt; &lt;/span&gt;&lt;span style=&quot;color: #d4d4d4;&quot;&gt;=&lt;/span&gt;&lt;span style=&quot;color: #cccccc;&quot;&gt; &lt;/span&gt;&lt;span style=&quot;color: #4ec9b0;&quot;&gt;nn&lt;/span&gt;&lt;span style=&quot;color: #cccccc;&quot;&gt;.&lt;/span&gt;&lt;span style=&quot;color: #4ec9b0;&quot;&gt;Linear&lt;/span&gt;&lt;/div&gt;&lt;/div&gt;" style="text;whiteSpace=wrap;html=1;fillColor=#d5e8d4;strokeColor=#82b366;" vertex="1" parent="1">
          <mxGeometry x="60" y="534.5" width="190" height="40" as="geometry" />
        </mxCell>
        <mxCell id="CPohoVJD_gDeLtstU62P-24" value="&lt;div style=&quot;color: #cccccc;background-color: #1f1f1f;font-family: Menlo, Monaco, &#39;Courier New&#39;, monospace;font-weight: normal;font-size: 12px;line-height: 18px;white-space: pre;&quot;&gt;&lt;div&gt;&lt;span style=&quot;color: #9cdcfe;&quot;&gt;self&lt;/span&gt;&lt;span style=&quot;color: #cccccc;&quot;&gt;.&lt;/span&gt;&lt;span style=&quot;color: #9cdcfe;&quot;&gt;experts&lt;/span&gt;&lt;span style=&quot;color: #cccccc;&quot;&gt; &lt;/span&gt;&lt;span style=&quot;color: #d4d4d4;&quot;&gt;=&lt;/span&gt;&lt;span style=&quot;color: #cccccc;&quot;&gt; &lt;/span&gt;&lt;span style=&quot;color: #4ec9b0;&quot;&gt;nn&lt;/span&gt;&lt;span style=&quot;color: #cccccc;&quot;&gt;.&lt;/span&gt;&lt;span style=&quot;color: #4ec9b0;&quot;&gt;ModuleList&lt;/span&gt;&lt;span style=&quot;color: #cccccc;&quot;&gt;(&lt;/span&gt;&lt;/div&gt;&lt;div&gt;&lt;span style=&quot;color: #cccccc;&quot;&gt;            [&lt;/span&gt;&lt;span style=&quot;color: #4ec9b0;&quot;&gt;Qwen2MoeMLP&lt;/span&gt;&lt;/div&gt;&lt;/div&gt;" style="text;whiteSpace=wrap;html=1;fillColor=#d5e8d4;strokeColor=#82b366;" vertex="1" parent="1">
          <mxGeometry x="254" y="524.5" width="240" height="60" as="geometry" />
        </mxCell>
        <mxCell id="CPohoVJD_gDeLtstU62P-25" value="&lt;div style=&quot;color: #cccccc;background-color: #1f1f1f;font-family: Menlo, Monaco, &#39;Courier New&#39;, monospace;font-weight: normal;font-size: 12px;line-height: 18px;white-space: pre;&quot;&gt;&lt;div&gt;&lt;span style=&quot;color: #9cdcfe;&quot;&gt;self&lt;/span&gt;&lt;span style=&quot;color: #cccccc;&quot;&gt;.&lt;/span&gt;&lt;span style=&quot;color: #9cdcfe;&quot;&gt;shared_expert&lt;/span&gt;&lt;span style=&quot;color: #cccccc;&quot;&gt; &lt;/span&gt;&lt;span style=&quot;color: #d4d4d4;&quot;&gt;=&lt;/span&gt;&lt;span style=&quot;color: #cccccc;&quot;&gt; &lt;/span&gt;&lt;span style=&quot;color: #4ec9b0;&quot;&gt;Qwen2MoeMLP&lt;/span&gt;&lt;/div&gt;&lt;/div&gt;" style="text;whiteSpace=wrap;html=1;fillColor=#d5e8d4;strokeColor=#82b366;" vertex="1" parent="1">
          <mxGeometry x="490" y="534.5" width="260" height="40" as="geometry" />
        </mxCell>
        <mxCell id="CPohoVJD_gDeLtstU62P-26" value="&lt;div style=&quot;color: #cccccc;background-color: #1f1f1f;font-family: Menlo, Monaco, &#39;Courier New&#39;, monospace;font-weight: normal;font-size: 12px;line-height: 18px;white-space: pre;&quot;&gt;&lt;div&gt;&lt;span style=&quot;color: #9cdcfe;&quot;&gt;self&lt;/span&gt;&lt;span style=&quot;color: #cccccc;&quot;&gt;.&lt;/span&gt;&lt;span style=&quot;color: #9cdcfe;&quot;&gt;shared_expert_gate&lt;/span&gt;&lt;span style=&quot;color: #cccccc;&quot;&gt; &lt;/span&gt;&lt;span style=&quot;color: #d4d4d4;&quot;&gt;=&lt;/span&gt;&lt;span style=&quot;color: #cccccc;&quot;&gt; &lt;/span&gt;&lt;span style=&quot;color: #4ec9b0;&quot;&gt;torch&lt;/span&gt;&lt;span style=&quot;color: #cccccc;&quot;&gt;.&lt;/span&gt;&lt;span style=&quot;color: #4ec9b0;&quot;&gt;nn&lt;/span&gt;&lt;span style=&quot;color: #cccccc;&quot;&gt;.&lt;/span&gt;&lt;span style=&quot;color: #4ec9b0;&quot;&gt;Linear&lt;/span&gt;&lt;/div&gt;&lt;/div&gt;" style="text;whiteSpace=wrap;html=1;fillColor=#d5e8d4;strokeColor=#82b366;" vertex="1" parent="1">
          <mxGeometry x="770" y="534.5" width="330" height="40" as="geometry" />
        </mxCell>
        <mxCell id="CPohoVJD_gDeLtstU62P-29" style="edgeStyle=orthogonalEdgeStyle;rounded=0;orthogonalLoop=1;jettySize=auto;html=1;exitX=0.5;exitY=1;exitDx=0;exitDy=0;entryX=0.527;entryY=-0.087;entryDx=0;entryDy=0;entryPerimeter=0;" edge="1" parent="1" source="CPohoVJD_gDeLtstU62P-14" target="CPohoVJD_gDeLtstU62P-25">
          <mxGeometry relative="1" as="geometry" />
        </mxCell>
      </root>
    </mxGraphModel>
  </diagram>
</mxfile>
